<svg width="44" height="44" viewBox="0 0 44 44" fill="none" xmlns="http://www.w3.org/2000/svg">
<path d="M9.59091 34.4V33.4454C9.06373 33.4454 8.63636 33.8728 8.63636 34.4H9.59091ZM34.4091 34.4H35.3636C35.3636 33.8728 34.9363 33.4454 34.4091 33.4454V34.4ZM40.1364 20.1328V19.1782C39.75 19.1782 39.4017 19.4111 39.2542 19.7683C39.1066 20.1254 39.1889 20.5362 39.4626 20.8089L40.1364 20.1328ZM37.2727 14.4259L36.3675 14.7287C36.5225 15.192 37.0022 15.4635 37.4791 15.3578L37.2727 14.4259ZM12.4545 5.86555L12.0797 4.9877V4.9877L12.4545 5.86555ZM6.72727 14.4259L6.49654 15.3521C6.97985 15.4725 7.4745 15.2011 7.63251 14.7287L6.72727 14.4259ZM3.86364 20.1328L4.7168 20.5609C4.86528 20.265 4.84983 19.9132 4.67598 19.6315C4.50213 19.3498 4.1947 19.1782 3.86364 19.1782L3.86364 20.1328ZM10.5455 17.2793L9.67051 16.8977C9.5418 17.1928 9.57052 17.5329 9.74689 17.8022C9.92325 18.0716 10.2235 18.2339 10.5455 18.2339V17.2793ZM33.4545 17.2793V18.2339C33.7765 18.2339 34.0767 18.0716 34.2531 17.8022C34.4295 17.5329 34.4582 17.1928 34.3295 16.8977L33.4545 17.2793ZM30.5909 11L31.4441 10.5719L30.5909 11ZM13.4091 11L12.5559 10.5719H12.5559L13.4091 11ZM9.59091 35.3545H34.4091V33.4454H9.59091V35.3545ZM33.4545 34.4V35.3511H35.3636V34.4H33.4545ZM33.4545 35.3511C33.4545 36.4503 33.7311 37.4498 34.4512 38.1674C35.1708 38.8843 36.1719 39.1591 37.2727 39.1591V37.25C36.4645 37.25 36.0338 37.0492 35.7988 36.815C35.5644 36.5815 35.3636 36.1543 35.3636 35.3511H33.4545ZM37.2727 39.1591H38.2273V37.25H37.2727V39.1591ZM42.0455 22.035C42.0455 21.2716 41.6773 20.6005 41.407 20.1964C41.2614 19.9788 41.1172 19.7993 41.0092 19.6737C40.9547 19.6105 40.9083 19.5596 40.874 19.5229C40.8569 19.5046 40.8426 19.4898 40.8318 19.4786C40.8264 19.4731 40.8219 19.4684 40.8182 19.4648C40.8164 19.4629 40.8148 19.4613 40.8135 19.4599C40.8128 19.4593 40.8122 19.4586 40.8116 19.4581C40.8113 19.4578 40.8111 19.4575 40.8108 19.4573C40.8107 19.4572 40.8105 19.457 40.8105 19.4569C40.8103 19.4568 40.8101 19.4566 40.1364 20.1328C39.4626 20.8089 39.4624 20.8088 39.4623 20.8086C39.4622 20.8086 39.4621 20.8084 39.462 20.8083C39.4618 20.8081 39.4616 20.8079 39.4614 20.8078C39.4611 20.8074 39.4608 20.8072 39.4606 20.807C39.4602 20.8065 39.46 20.8063 39.46 20.8063C39.4599 20.8062 39.4607 20.8071 39.4623 20.8087C39.4655 20.812 39.4718 20.8185 39.4807 20.828C39.4986 20.8471 39.5268 20.878 39.5619 20.9187C39.6328 21.0012 39.7273 21.119 39.8203 21.258C40.0272 21.5673 40.1364 21.8474 40.1364 22.035H42.0455ZM40.1364 20.1328C40.1364 21.0873 40.1367 21.0873 40.137 21.0873C40.1371 21.0873 40.1375 21.0873 40.1377 21.0873C40.1382 21.0873 40.1388 21.0873 40.1394 21.0873C40.1406 21.0873 40.1419 21.0873 40.1435 21.0873C40.1466 21.0873 40.1503 21.0872 40.1548 21.0872C40.1637 21.0871 40.1754 21.0869 40.1897 21.0866C40.2181 21.086 40.2569 21.0848 40.3047 21.0825C40.3998 21.078 40.5319 21.0692 40.6888 21.0518C40.9979 21.0176 41.4268 20.9478 41.8691 20.8009C42.7078 20.5223 43.9545 19.8177 43.9545 18.2305H42.0455C42.0455 18.5456 41.8604 18.7921 41.2673 18.9891C40.9937 19.08 40.7066 19.1291 40.4788 19.1543C40.3673 19.1666 40.2756 19.1727 40.2142 19.1756C40.1836 19.177 40.1609 19.1777 40.1474 19.178C40.1407 19.1781 40.1363 19.1782 40.1344 19.1782C40.1334 19.1782 40.1331 19.1782 40.1334 19.1782C40.1336 19.1782 40.1339 19.1782 40.1344 19.1782C40.1346 19.1782 40.1349 19.1782 40.1353 19.1782C40.1354 19.1782 40.1357 19.1782 40.1358 19.1782C40.1361 19.1782 40.1364 19.1782 40.1364 20.1328ZM43.9545 18.2305C43.9545 16.1111 43.403 15.0029 42.8986 13.9978L41.1923 14.854C41.6425 15.7511 42.0455 16.5452 42.0455 18.2305H43.9545ZM42.8986 13.9978C42.692 13.5859 42.33 13.375 42.0568 13.2661C41.7757 13.1541 41.4688 13.1009 41.1885 13.0743C40.6242 13.0208 39.9684 13.0582 39.3805 13.1199C38.7821 13.1826 38.2051 13.2761 37.7812 13.3529C37.5682 13.3914 37.3916 13.4262 37.2674 13.4516C37.2053 13.4643 37.1561 13.4746 37.122 13.4819C37.1049 13.4855 37.0916 13.4884 37.0822 13.4904C37.0775 13.4914 37.0739 13.4923 37.0712 13.4928C37.0699 13.4931 37.0688 13.4934 37.068 13.4935C37.0676 13.4936 37.0673 13.4937 37.067 13.4938C37.0668 13.4938 37.0667 13.4938 37.0666 13.4938C37.0665 13.4939 37.0664 13.4939 37.2727 14.4259C37.4791 15.3578 37.479 15.3579 37.4789 15.3579C37.4789 15.3579 37.4789 15.3579 37.4789 15.3579C37.4789 15.3579 37.4789 15.3579 37.479 15.3579C37.4792 15.3578 37.4797 15.3577 37.4805 15.3575C37.482 15.3572 37.4844 15.3567 37.4879 15.3559C37.4948 15.3544 37.5057 15.3521 37.5202 15.349C37.5492 15.3428 37.5928 15.3336 37.649 15.3221C37.7616 15.2992 37.9243 15.2671 38.1215 15.2314C38.5179 15.1596 39.0446 15.0747 39.5797 15.0185C40.1253 14.9613 40.6329 14.9393 41.0082 14.9749C41.1978 14.9929 41.3047 15.0215 41.3499 15.0395C41.403 15.0607 41.2796 15.028 41.1923 14.854L42.8986 13.9978ZM37.2727 14.4259C38.178 14.123 38.1779 14.1229 38.1778 14.1226C38.1778 14.1225 38.1777 14.1223 38.1776 14.1221C38.1775 14.1216 38.1773 14.1211 38.1771 14.1205C38.1767 14.1192 38.1761 14.1174 38.1754 14.1153C38.1739 14.111 38.1719 14.105 38.1692 14.0973C38.164 14.082 38.1565 14.06 38.1467 14.0318C38.1271 13.9755 38.0984 13.8941 38.061 13.791C37.9862 13.5849 37.8763 13.2911 37.7341 12.935C37.4504 12.2244 37.0351 11.2583 36.5099 10.2424C35.9865 9.23019 35.3424 8.1455 34.596 7.20981C33.8594 6.28643 32.9651 5.43389 31.9204 4.98772L31.1705 6.74339C31.7963 7.01065 32.4531 7.58488 33.1036 8.40032C33.7442 9.20346 34.3231 10.1697 34.814 11.1192C35.303 12.065 35.6931 12.9715 35.9612 13.6429C36.0949 13.9779 36.1976 14.2526 36.2663 14.4421C36.3007 14.5368 36.3266 14.6102 36.3435 14.659C36.352 14.6834 36.3583 14.7017 36.3623 14.7134C36.3643 14.7193 36.3658 14.7236 36.3666 14.7261C36.3671 14.7274 36.3673 14.7283 36.3675 14.7287C36.3676 14.7289 36.3676 14.729 36.3676 14.729C36.3676 14.729 36.3676 14.7289 36.3676 14.7289C36.3675 14.7288 36.3675 14.7287 37.2727 14.4259ZM31.9204 4.98772C30.9437 4.57058 29.4179 4.29303 27.7233 4.11371C25.9977 3.9311 23.9946 3.8409 22 3.84091C20.0054 3.84092 18.0023 3.93114 16.2767 4.11376C14.5821 4.29308 13.0563 4.57062 12.0797 4.9877L12.8294 6.7434C13.5232 6.44713 14.8014 6.18963 16.4776 6.01225C18.1227 5.83816 20.0571 5.75001 22 5.75C23.9429 5.74999 25.8773 5.83812 27.5224 6.0122C29.1986 6.18958 30.4768 6.44709 31.1705 6.74339L31.9204 4.98772ZM12.0797 4.9877C11.035 5.43384 10.1406 6.28637 9.40401 7.20974C8.6576 8.14543 8.01346 9.23012 7.49014 10.2424C6.96491 11.2583 6.54959 12.2244 6.26585 12.935C6.12368 13.2911 6.01381 13.5849 5.93902 13.791C5.90161 13.8941 5.87292 13.9755 5.85332 14.0318C5.84352 14.06 5.83598 14.082 5.83075 14.0973C5.82814 14.105 5.8261 14.111 5.82465 14.1153C5.82392 14.1174 5.82334 14.1192 5.8229 14.1205C5.82268 14.1211 5.8225 14.1217 5.82236 14.1221C5.82229 14.1223 5.82221 14.1225 5.82217 14.1227C5.8221 14.1229 5.82204 14.1231 6.72727 14.4259C7.63251 14.7287 7.63247 14.7288 7.63243 14.7289C7.63243 14.7289 7.6324 14.729 7.6324 14.729C7.63241 14.729 7.63244 14.7289 7.63252 14.7287C7.63266 14.7283 7.63295 14.7274 7.63338 14.7261C7.63425 14.7235 7.63568 14.7193 7.63769 14.7134C7.64169 14.7017 7.64797 14.6834 7.65646 14.659C7.67344 14.6102 7.69929 14.5368 7.73365 14.4421C7.80241 14.2526 7.90508 13.9779 8.03884 13.6429C8.30694 12.9714 8.69702 12.0649 9.186 11.1191C9.67688 10.1696 10.2558 9.20339 10.8964 8.40026C11.5469 7.58482 12.2037 7.01063 12.8294 6.7434L12.0797 4.9877ZM6.72727 14.4259C6.95801 13.4996 6.95786 13.4996 6.9577 13.4996C6.95762 13.4995 6.95745 13.4995 6.9573 13.4995C6.95701 13.4994 6.95665 13.4993 6.95624 13.4992C6.95542 13.499 6.95437 13.4987 6.95308 13.4984C6.95052 13.4978 6.94703 13.4969 6.94266 13.4959C6.9339 13.4937 6.92158 13.4907 6.90589 13.487C6.87451 13.4795 6.82962 13.4689 6.77288 13.4561C6.65948 13.4303 6.49821 13.395 6.30233 13.356C5.9124 13.2783 5.37666 13.1839 4.8039 13.1204C4.23823 13.0578 3.59997 13.0211 3.01687 13.074C2.48434 13.1222 1.77056 13.2617 1.28078 13.7497L2.62831 15.102C2.6158 15.1145 2.73725 15.0162 3.1891 14.9753C3.59037 14.9389 4.08563 14.9617 4.59382 15.0179C5.09493 15.0734 5.57339 15.1573 5.92921 15.2283C6.10619 15.2635 6.25067 15.2951 6.34981 15.3177C6.39934 15.3289 6.43741 15.3379 6.46243 15.3439C6.47494 15.3468 6.48417 15.3491 6.48993 15.3505C6.4928 15.3512 6.49481 15.3517 6.49592 15.352C6.49647 15.3521 6.49681 15.3522 6.49691 15.3522C6.49696 15.3522 6.49696 15.3522 6.4969 15.3522C6.49686 15.3522 6.49677 15.3522 6.49676 15.3522C6.49666 15.3521 6.49654 15.3521 6.72727 14.4259ZM1.28078 13.7497C0.00163424 15.0243 0.0454546 16.4054 0.0454546 18.2305H1.95455C1.95455 16.251 1.99837 15.7297 2.62831 15.102L1.28078 13.7497ZM0.0454546 18.2305C0.0454546 19.8177 1.29224 20.5223 2.13093 20.8009C2.57325 20.9478 3.00207 21.0176 3.31115 21.0518C3.46812 21.0692 3.60016 21.078 3.69535 21.0825C3.74307 21.0848 3.78189 21.086 3.81035 21.0866C3.82458 21.0869 3.83626 21.0871 3.8452 21.0872C3.84966 21.0872 3.85345 21.0873 3.85653 21.0873C3.85807 21.0873 3.85943 21.0873 3.86062 21.0873C3.86121 21.0873 3.86176 21.0873 3.86226 21.0873C3.86251 21.0873 3.86286 21.0873 3.86298 21.0873C3.86332 21.0873 3.86364 21.0873 3.86364 20.1328C3.86364 19.1782 3.86394 19.1782 3.86422 19.1782C3.86431 19.1782 3.86458 19.1782 3.86475 19.1782C3.86508 19.1782 3.86536 19.1782 3.86561 19.1782C3.8661 19.1782 3.86643 19.1782 3.86659 19.1782C3.86692 19.1782 3.8666 19.1782 3.86565 19.1782C3.86375 19.1782 3.85934 19.1781 3.85261 19.178C3.83912 19.1777 3.81641 19.177 3.78583 19.1756C3.72442 19.1727 3.63274 19.1666 3.52123 19.1543C3.29339 19.1291 3.0063 19.08 2.7327 18.9891C2.13958 18.7921 1.95455 18.5456 1.95455 18.2305H0.0454546ZM3.86364 20.1328C3.01048 19.7047 3.01043 19.7047 3.01038 19.7048C3.01036 19.7049 3.01031 19.705 3.01026 19.7051C3.01018 19.7052 3.01008 19.7054 3.00996 19.7057C3.00974 19.7061 3.00945 19.7067 3.00911 19.7074C3.00842 19.7088 3.0075 19.7106 3.00637 19.7129C3.00409 19.7174 3.00094 19.7238 2.99695 19.7319C2.98899 19.748 2.97771 19.771 2.96358 19.8002C2.93536 19.8584 2.89568 19.9415 2.84834 20.0437C2.75401 20.2473 2.62764 20.5306 2.50053 20.8472C2.37422 21.1618 2.2423 21.5215 2.14067 21.876C2.04322 22.2158 1.95455 22.6145 1.95455 22.9862H3.86364C3.86364 22.8823 3.89428 22.6865 3.97581 22.4022C4.05316 22.1324 4.15987 21.8382 4.2722 21.5584C4.38373 21.2806 4.49599 21.0288 4.58063 20.846C4.62279 20.755 4.65768 20.682 4.68166 20.6325C4.69364 20.6078 4.70286 20.589 4.70888 20.5768C4.71189 20.5707 4.71409 20.5663 4.71543 20.5636C4.7161 20.5623 4.71655 20.5614 4.71678 20.5609C4.7169 20.5607 4.71696 20.5605 4.71696 20.5605C4.71696 20.5605 4.71695 20.5606 4.71692 20.5606C4.71691 20.5606 4.71688 20.5607 4.71687 20.5607C4.71684 20.5608 4.7168 20.5609 3.86364 20.1328ZM1.95455 22.9862V35.3511H3.86364V22.9862H1.95455ZM6.72727 39.1591C7.8281 39.1591 8.82922 38.8843 9.54876 38.1674C10.2689 37.4498 10.5455 36.4503 10.5455 35.3511H8.63636C8.63636 36.1543 8.43562 36.5815 8.20124 36.815C7.96623 37.0492 7.53554 37.25 6.72727 37.25V39.1591ZM10.5455 35.3511V34.4H8.63636V35.3511H10.5455ZM10.5455 18.2339H33.4545V16.3248H10.5455V18.2339ZM33.4545 17.2793C34.3295 16.8977 34.3295 16.8977 34.3295 16.8976C34.3294 16.8976 34.3294 16.8975 34.3294 16.8975C34.3293 16.8973 34.3292 16.8971 34.3291 16.8968C34.3289 16.8963 34.3285 16.8954 34.328 16.8944C34.3271 16.8922 34.3257 16.889 34.3238 16.8848C34.3201 16.8763 34.3147 16.8638 34.3075 16.8474C34.2932 16.8146 34.2721 16.7664 34.245 16.7045C34.1907 16.5805 34.1121 16.4015 34.0149 16.1808C33.8204 15.7395 33.5511 15.1311 33.2518 14.4628C32.6561 13.1327 31.9321 11.5445 31.4441 10.5719L29.7378 11.4281C30.2043 12.3578 30.9121 13.9092 31.5095 15.2432C31.8068 15.907 32.0745 16.5117 32.2678 16.9505C32.3645 17.1699 32.4425 17.3477 32.4963 17.4706C32.5233 17.532 32.5441 17.5797 32.5582 17.612C32.5653 17.6281 32.5706 17.6404 32.5742 17.6487C32.576 17.6528 32.5774 17.6559 32.5783 17.6579C32.5787 17.6589 32.5791 17.6597 32.5793 17.6602C32.5794 17.6605 32.5795 17.6607 32.5795 17.6608C32.5796 17.6608 32.5796 17.6609 32.5796 17.6609C32.5796 17.6609 32.5796 17.6609 33.4545 17.2793ZM31.4441 10.5719C31.2749 10.2348 30.9983 10.0087 30.7613 9.85882C30.514 9.70249 30.2274 9.57764 29.9323 9.47462C29.3414 9.26833 28.597 9.10897 27.7798 8.98606C26.1371 8.73901 24.0584 8.61878 22 8.61878C19.9416 8.61878 17.8629 8.73901 16.2202 8.98606C15.403 9.10897 14.6586 9.26833 14.0677 9.47462C13.7726 9.57764 13.486 9.70249 13.2387 9.85882C13.0017 10.0087 12.7251 10.2348 12.5559 10.5719L14.2622 11.4281C14.2124 11.5274 14.167 11.5306 14.259 11.4724C14.3408 11.4207 14.4811 11.3524 14.6969 11.277C15.1277 11.1267 15.7404 10.9888 16.5042 10.8739C18.0235 10.6454 20.0015 10.5279 22 10.5279C23.9985 10.5279 25.9765 10.6454 27.4958 10.8739C28.2596 10.9888 28.8723 11.1267 29.3031 11.277C29.5189 11.3524 29.6592 11.4207 29.741 11.4724C29.833 11.5306 29.7876 11.5274 29.7378 11.4281L31.4441 10.5719ZM12.5559 10.5719C12.0679 11.5445 11.3439 13.1327 10.7482 14.4628C10.4489 15.1311 10.1796 15.7395 9.98514 16.1808C9.88791 16.4015 9.80934 16.5805 9.75504 16.7045C9.72789 16.7664 9.7068 16.8146 9.69248 16.8474C9.68532 16.8638 9.67985 16.8763 9.67616 16.8848C9.67432 16.889 9.67291 16.8922 9.67197 16.8944C9.6715 16.8954 9.67114 16.8963 9.67089 16.8968C9.67077 16.8971 9.67068 16.8973 9.67061 16.8975C9.67058 16.8975 9.67056 16.8976 9.67054 16.8976C9.67052 16.8977 9.67051 16.8977 10.5455 17.2793C11.4204 17.6609 11.4204 17.6609 11.4204 17.6609C11.4204 17.6609 11.4204 17.6608 11.4205 17.6608C11.4205 17.6607 11.4206 17.6605 11.4207 17.6602C11.4209 17.6597 11.4213 17.6589 11.4217 17.6579C11.4226 17.6559 11.424 17.6528 11.4258 17.6487C11.4293 17.6404 11.4347 17.6281 11.4418 17.612C11.4559 17.5797 11.4767 17.532 11.5037 17.4706C11.5575 17.3477 11.6355 17.1699 11.7322 16.9505C11.9255 16.5117 12.1932 15.907 12.4905 15.2432C13.0879 13.9092 13.7957 12.3578 14.2622 11.4281L12.5559 10.5719ZM8.63636 27.7453H13.4091V25.8362H8.63636V27.7453ZM13.4091 27.7453C15.0206 27.7453 16.2727 26.2269 16.2727 24.4129H14.3636C14.3636 25.4524 13.7066 25.8362 13.4091 25.8362V27.7453ZM16.2727 24.4129C16.2727 23.9318 16.0517 23.5432 15.8214 23.2685C15.5895 22.9918 15.2912 22.7599 14.9874 22.5669C14.3777 22.1795 13.5921 21.8524 12.8042 21.6012C12.009 21.3476 11.1622 21.1558 10.4062 21.0586C9.69765 20.9675 8.91359 20.9371 8.33548 21.1292L8.93725 22.9409C9.07505 22.8952 9.48416 22.8648 10.1627 22.9521C10.7938 23.0332 11.5279 23.198 12.2242 23.4201C12.9278 23.6444 13.5442 23.9118 13.9636 24.1783C14.1744 24.3122 14.2974 24.4222 14.3582 24.4947C14.4206 24.5692 14.3636 24.5373 14.3636 24.4129H16.2727ZM8.33548 21.1292C7.56876 21.3838 7.15437 22.0755 6.93936 22.6379C6.70974 23.2385 6.60795 23.9383 6.60795 24.5913C6.60795 25.2379 6.70783 25.9295 6.95659 26.4975C7.19196 27.0349 7.70755 27.7453 8.63636 27.7453V25.8362C8.84927 25.8362 8.82793 26.0116 8.70534 25.7317C8.59614 25.4823 8.51705 25.0741 8.51705 24.5913C8.51705 24.1147 8.59424 23.6553 8.72257 23.3196C8.86552 22.9457 8.98806 22.9241 8.93725 22.9409L8.33548 21.1292ZM1.95455 35.3511C1.95455 36.4502 2.23108 37.4497 2.95123 38.1673C3.67077 38.8843 4.67189 39.1591 5.77273 39.1591V37.25C4.96448 37.25 4.53378 37.0492 4.29877 36.815C4.06438 36.5814 3.86364 36.1542 3.86364 35.3511H1.95455ZM5.77273 39.1591H6.72727V37.25H5.77273V39.1591ZM38.2273 39.1591C39.3281 39.1591 40.3292 38.8843 41.0488 38.1673C41.7689 37.4497 42.0455 36.4502 42.0455 35.3511H40.1364C40.1364 36.1542 39.9356 36.5814 39.7012 36.815C39.4662 37.0492 39.0355 37.25 38.2273 37.25V39.1591ZM42.0455 35.3511V22.035H40.1364V35.3511H42.0455ZM34.8864 25.8362H30.1136V27.7453H34.8864V25.8362ZM30.1136 25.8362C29.8161 25.8362 29.1591 25.4524 29.1591 24.4129H27.25C27.25 26.2269 28.5021 27.7453 30.1136 27.7453V25.8362ZM29.1591 24.4129C29.1591 24.5373 29.1021 24.5692 29.1645 24.4947C29.2253 24.4222 29.3483 24.3122 29.5592 24.1783C29.9786 23.9118 30.5949 23.6444 31.2985 23.4201C31.9948 23.198 32.7289 23.0332 33.36 22.9521C34.0386 22.8648 34.4477 22.8952 34.5855 22.9409L35.1873 21.1292C34.6091 20.9371 33.8251 20.9675 33.1166 21.0586C32.3606 21.1558 31.5137 21.3476 30.7185 21.6012C29.9307 21.8524 29.145 22.1795 28.5353 22.5669C28.2316 22.7599 27.9332 22.9918 27.7013 23.2685C27.4711 23.5432 27.25 23.9318 27.25 24.4129H29.1591ZM34.5855 22.9409C34.5347 22.9241 34.6572 22.9457 34.8002 23.3196C34.9285 23.6553 35.0057 24.1147 35.0057 24.5913C35.0057 25.0741 34.9266 25.4823 34.8174 25.7317C34.6948 26.0116 34.6735 25.8362 34.8864 25.8362V27.7453C35.8152 27.7453 36.3308 27.0349 36.5661 26.4975C36.8149 25.9295 36.9148 25.2379 36.9148 24.5913C36.9148 23.9383 36.813 23.2385 36.5834 22.6379C36.3684 22.0755 35.954 21.3838 35.1873 21.1292L34.5855 22.9409Z" fill="#000C1A"/>
</svg>
