<svg width="44" height="44" viewBox="0 0 44 44" fill="none" xmlns="http://www.w3.org/2000/svg">
<path fill-rule="evenodd" clip-rule="evenodd" d="M23.1693 4.61004C24.7704 2.17913 27.3463 0 31.0534 0C34.6251 0 37.8947 2.58956 37.8947 6.23864C37.8947 7.94892 37.1963 9.46081 36.0658 10.579H40.7297C42.6231 10.579 44 12.2539 44 14.0901V19.4889C44 21.3872 42.7262 22.8504 41 22.9892V40.7895C41 42.6334 39.3933 44 37.6 44H6.4C4.60673 44 3 42.6334 3 40.7895V22.9885C1.24725 22.8381 0 21.2365 0 19.4889V14.0901C0 12.2539 1.37687 10.579 3.27027 10.579H7.80813C6.69077 9.47714 6 7.99792 6 6.34136C6 2.84571 9.09208 0 12.8209 0C16.5182 0 19.086 2.18101 20.6812 4.61139C21.1765 5.3661 21.5894 6.16062 21.9228 6.94675C22.2574 6.16014 22.672 5.36515 23.1693 4.61004ZM22.94 10.579C22.9373 10.557 22.9345 10.5349 22.9316 10.5128C23.1458 9.20289 23.7525 7.36069 24.8396 5.71015C26.2153 3.62145 28.2451 2 31.0534 2C33.7722 2 35.8947 3.93005 35.8947 6.23864C35.8947 8.55219 33.8981 10.5277 31.1625 10.579H22.94ZM20.9107 10.5123C20.6972 9.20186 20.0925 7.35938 19.0091 5.70881C17.6379 3.61957 15.6161 2 12.8209 2C10.0572 2 8 4.08478 8 6.34136C8 8.54485 9.97839 10.5276 12.712 10.579H20.9022C20.9049 10.5568 20.9078 10.5346 20.9107 10.5123ZM12.6967 12.579C12.738 12.5797 12.7794 12.58 12.8209 12.58V12.579H20.842V21H3.27027C2.66637 21 2 20.415 2 19.4889V14.0901C2 13.164 2.66637 12.579 3.27027 12.579H12.6967ZM31.0534 12.58V12.579H22.842V21H40.7297C41.3652 21 42 20.5062 42 19.4889V14.0901C42 13.164 41.3336 12.579 40.7297 12.579H31.1781C31.1366 12.5797 31.095 12.58 31.0534 12.58ZM20.842 23H5V40.7895C5 41.3771 5.55327 42 6.4 42H20.842V23ZM22.842 42V23H39V40.7895C39 41.3771 38.4467 42 37.6 42H22.842Z" fill="#000C1A"/>
</svg>
